<svg width="251" height="251" viewBox="0 0 251 251" fill="none" xmlns="http://www.w3.org/2000/svg">
<circle opacity="0.12" cx="125.063" cy="125.446" r="125" fill="#7878B3"/>
<circle opacity="0.12" cx="125.063" cy="125.446" r="68.0693" fill="#7878B3"/>
<path fill-rule="evenodd" clip-rule="evenodd" d="M80.9279 58.2965C78.8202 55.8225 77.3937 52.7906 77.6321 49.3932C78.3189 39.6044 91.9452 41.7578 94.5958 46.6983C97.2464 51.6389 96.9315 64.171 93.5058 65.054C92.1397 65.4061 89.2293 64.5435 86.2673 62.7582L88.1265 75.9113H77.1487L80.9279 58.2965Z" fill="#B28B67"/>
<path fill-rule="evenodd" clip-rule="evenodd" d="M99.4592 39.8493C99.2319 39.0502 98.6205 38.3661 97.7964 38.1631C97.5966 38.1139 97.3902 38.094 97.1846 38.1023C97.1109 38.1052 97.0902 38.1265 97.0557 38.0749C97.0301 38.0367 97.0296 37.9432 97.019 37.8983C96.9863 37.7586 96.9453 37.6206 96.8948 37.4861C96.7224 37.0277 96.4326 36.6219 96.0833 36.2801C95.43 35.6406 94.5472 35.1993 93.6301 35.1194C93.1281 35.0758 92.6298 35.1573 92.1552 35.3206C91.9095 35.4051 91.6713 35.5104 91.4393 35.6268C91.3694 35.6618 91.1427 35.8333 91.0726 35.8222C90.9952 35.81 90.8396 35.6175 90.7766 35.5692C89.9984 34.9722 89.0373 34.7374 88.068 34.7444C86.9739 34.7527 85.9203 34.8073 85.0078 35.4743C84.8146 35.6155 84.6306 35.7701 84.4555 35.9329C84.3632 36.0186 84.2739 36.1075 84.1887 36.2001C84.1373 36.256 84.0872 36.3132 84.039 36.3718C83.9573 36.4714 83.9704 36.5041 83.8559 36.4346C83.4167 36.1678 82.9078 36.043 82.3953 36.106C82.0909 36.1435 81.7948 36.2348 81.5136 36.3551C81.4178 36.3961 81.1962 36.5594 81.0942 36.561C80.993 36.5625 80.7745 36.4111 80.6702 36.3727C80.107 36.1648 79.5 36.1135 78.9081 36.2096C78.2974 36.3087 77.6976 36.5523 77.1803 36.889C76.9315 37.0509 76.7143 37.2303 76.54 37.4711C76.4647 37.5751 76.3966 37.6851 76.3113 37.7815C76.2613 37.8379 76.1624 37.8958 76.1356 37.9672C76.1516 37.9245 75.4678 37.6609 75.4033 37.644C75.0595 37.5542 74.7094 37.5724 74.3728 37.6832C73.7398 37.8915 73.1954 38.3587 72.748 38.8377C72.5182 39.0837 72.3171 39.3556 72.1464 39.6453C72.0646 39.7841 71.9897 39.9269 71.9213 40.0727C71.8881 40.1433 71.8661 40.2316 71.8225 40.2952C71.7661 40.3772 71.7283 40.3788 71.6263 40.4145C71.1082 40.596 70.6359 40.9032 70.2763 41.3183C69.9125 41.7383 69.6765 42.2555 69.5775 42.8001C69.5717 42.8322 69.5682 42.9652 69.5494 42.9825C69.5237 43.0064 69.4195 42.9959 69.3801 43.0005C69.2436 43.0165 69.1081 43.0403 68.9744 43.072C68.7279 43.1303 68.488 43.2162 68.2611 43.3285C67.3765 43.7662 66.7438 44.5867 66.4342 45.5101C66.1093 46.4791 66.1151 47.5892 66.5034 48.5401C66.5661 48.6937 66.6407 48.8428 66.7284 48.9838C66.7822 49.0704 66.7996 49.0706 66.7646 49.1615C66.7257 49.2625 66.6545 49.3607 66.6083 49.4595C66.4573 49.7817 66.3518 50.1234 66.2852 50.4725C66.1759 51.0451 66.1217 51.6468 66.2295 52.2237C66.2796 52.4916 66.3669 52.7535 66.5 52.9921C66.5679 53.1137 66.6473 53.2291 66.737 53.3358C66.7835 53.3913 66.833 53.4442 66.8847 53.4949C66.9143 53.5239 66.9531 53.5492 66.9782 53.5816C67.0396 53.6604 67.0525 53.5956 67.0208 53.7114C66.9766 53.8734 66.8762 54.0331 66.8148 54.1907C66.7515 54.3531 66.6942 54.5177 66.6419 54.684C66.5359 55.0206 66.4462 55.3633 66.3902 55.7119C66.2825 56.3812 66.3014 57.0944 66.618 57.7086C66.7534 57.9714 66.9475 58.2019 67.1831 58.3812C67.2984 58.4689 67.4232 58.5445 67.5542 58.6066C67.6215 58.6385 67.7074 58.6522 67.7381 58.7173C67.7712 58.7873 67.7221 58.9263 67.7109 59.0046C67.6136 59.6853 67.5648 60.4001 67.7672 61.0672C67.9535 61.6816 68.3639 62.2241 68.8967 62.5833C69.9303 63.28 71.3235 63.2408 72.4095 62.683C72.6926 62.5375 72.9574 62.357 73.1937 62.1441C73.7953 62.9539 75.0332 62.9283 75.9125 62.6975C77.0079 62.4101 77.8869 61.6484 78.3933 60.6476C79.0858 61.4906 80.5391 61.2171 81.0193 60.3025C81.1368 60.0787 81.2065 59.832 81.2408 59.5824C81.2589 59.4512 81.2474 59.3187 81.2609 59.1885C81.2783 59.0226 81.3891 58.8613 81.4528 58.7008C81.5769 58.3884 81.6539 58.0657 81.6573 57.7287C81.659 57.5528 81.6367 57.3813 81.62 57.2068C81.6049 57.0497 81.6485 56.9033 81.6732 56.7482C81.3923 56.7945 81.05 56.7187 80.7853 56.6373C80.5256 56.5573 80.2823 56.3468 80.099 56.1545C79.6733 55.708 79.4132 55.1227 79.2354 54.5402C78.845 53.2616 79.005 51.7276 80.2911 51.0259C80.8901 50.699 82.6849 50.7001 83.3985 50.8616C84.1488 51.0315 84.9993 52.687 85.0412 52.8426C85.0671 52.9389 85.054 53.0581 85.1425 53.1222C85.3369 53.2633 85.6576 53.0185 85.801 52.8976C86.0485 52.6891 86.225 52.4116 86.3779 52.1303C86.711 51.5175 86.9795 50.8603 87.1692 50.1895C87.3155 49.6723 87.409 49.1389 87.6001 48.6349C87.7903 48.1334 88.0902 47.6851 88.5564 47.401C89.0635 47.0919 89.6449 46.9291 90.2016 46.7349C90.7535 46.5424 91.2958 46.3071 91.7236 45.8987C91.8177 45.8089 91.909 45.7134 91.9848 45.6077C92.0445 45.5242 92.1036 45.3644 92.1947 45.3115C92.3362 45.2292 92.5428 45.4433 92.6653 45.521C93.2692 45.9046 93.7731 46.4396 94.1796 47.024C94.5837 47.6053 94.9153 48.1646 95.1848 48.8136C95.3847 49.295 95.5095 49.9115 95.861 50.306C96.018 50.4822 97.1846 50.5887 97.5625 50.4349C97.9404 50.2812 98.3639 49.8818 98.4907 49.6316C98.6206 49.3754 98.6516 49.0941 98.5961 48.8136C98.5635 48.6487 98.4968 48.4946 98.4604 48.3325C98.4297 48.1964 98.4018 48.0678 98.3356 47.9431C98.21 47.7068 97.9955 47.537 97.7368 47.4659C98.006 47.2177 98.2291 46.9208 98.3835 46.5889C98.5438 46.244 98.6798 45.8246 98.7183 45.4462C98.7497 45.1387 98.7013 44.8202 98.533 44.556C98.3565 44.2789 98.0437 44.0981 97.7731 43.9252C98.1865 43.6018 98.5402 43.2085 98.8311 42.7731C99.3967 41.9263 99.7465 40.8589 99.4592 39.8493Z" fill="#2E2E4F"/>
<path fill-rule="evenodd" clip-rule="evenodd" d="M73.5237 113.763L95.5167 171.958L110.932 214.851H119.722L98.532 113.763L73.5237 113.763Z" fill="#2E2E4F"/>
<path fill-rule="evenodd" clip-rule="evenodd" d="M68.0879 113.763C67.8488 133.731 68.0217 160.615 67.4646 161.859C67.0933 162.689 55.5431 172.144 32.814 190.223L37.3446 197.927C64.3293 180.525 78.5114 170.665 79.8911 168.346C81.9605 164.869 92.3571 132.866 97.7662 113.763H68.0879Z" fill="#585886"/>
<path fill-rule="evenodd" clip-rule="evenodd" d="M24.8433 195.407L32.4957 189.583L38.67 196.941C39.145 202.489 40.9816 208.71 44.18 215.605L42.7784 216.781L31.6057 203.466L28.4843 198.323L27.7835 198.911L24.8433 195.407Z" fill="#2E2E4F"/>
<path fill-rule="evenodd" clip-rule="evenodd" d="M110.116 223.084L110.574 213.479H120.179C124.734 216.681 130.681 219.273 138.018 221.255V223.084H120.637L114.691 222.17V223.084H110.116Z" fill="#2E2E4F"/>
<path fill-rule="evenodd" clip-rule="evenodd" d="M112.294 107.977L126.885 118.691C130.842 119.759 134.148 121.088 136.803 122.677C137.43 123.248 138.188 124.406 135.587 124.206C132.986 124.006 130.241 123.912 129.883 124.8C129.524 125.687 131.098 126.748 130.372 127.945C129.889 128.743 127.604 126.742 123.517 121.942L109.069 115.95L112.294 107.977ZM56.2736 108.347L65.8323 108.385C59.9303 127.437 56.744 137.547 56.2736 138.712C55.2152 141.336 57.455 145.33 58.4128 147.477C55.2932 148.873 55.6256 143.703 51.6904 145.534C48.0985 147.205 45.3661 150.233 41.2162 147.673C40.706 147.358 40.1469 146.172 41.4977 145.246C44.8633 142.938 49.7132 138.9 50.3685 137.57C51.2621 135.757 53.2305 126.016 56.2736 108.347Z" fill="#B28B67"/>
<path fill-rule="evenodd" clip-rule="evenodd" d="M83.4379 68.2376L87.3932 67.5592C102.068 80.2365 108.096 104.591 126.084 117.493L121.755 122.86C90.5484 118.996 82.8137 89.2889 83.4379 68.2376Z" fill="#2E2E4F"/>
<path fill-rule="evenodd" clip-rule="evenodd" d="M66.1958 117.943C82.055 117.943 93.7207 117.943 101.193 117.943C102.792 117.943 102.491 115.634 102.26 114.469C99.5916 101.021 89.1767 86.5247 89.1767 67.3817L79.0819 65.7987C70.7322 79.2275 67.8447 95.7612 66.1958 117.943Z" fill="#DCDDF5"/>
<path fill-rule="evenodd" clip-rule="evenodd" d="M66.4771 78.9986C65.0109 78.5772 63.8499 77.5943 62.994 76.0498C59.3043 69.3922 60.6368 65.7266 64.5799 64.5217C68.523 63.3169 72.0394 65.7987 78.3218 65.7987C78.6635 65.7987 78.9765 65.8201 79.2607 65.863L82.4209 66.0433C91.4879 96.7723 93.9885 117.274 89.9228 127.549H62.3773C60.7452 131.355 59.1835 134.557 57.6921 137.155H50.1865C49.4801 114.315 54.9103 94.9295 66.4771 78.9986Z" fill="#7878B3"/>
<path fill-rule="evenodd" clip-rule="evenodd" d="M68.3754 111.767C69.2417 119.016 70.6497 124.276 72.5995 127.549H62.3772C64.2809 123.11 66.2803 117.849 68.3754 111.767H68.3754Z" fill="black" fill-opacity="0.1"/>
<path fill-rule="evenodd" clip-rule="evenodd" d="M163.822 56.5421C161.715 54.0681 160.288 51.0362 160.527 47.6388C161.213 37.85 174.84 40.0034 177.49 44.9439C180.141 49.8845 179.826 62.4166 176.4 63.2996C175.034 63.6518 172.124 62.7891 169.162 61.0038L171.021 74.157H160.043L163.822 56.5421Z" fill="#B28B67"/>
<path fill-rule="evenodd" clip-rule="evenodd" d="M172.649 45.6605C171.159 46.4938 170.099 48.0553 168.823 50.1035C168.512 49.9813 168.173 49.9142 167.819 49.9142C166.304 49.9142 165.075 51.1429 165.075 52.6587C165.075 53.4281 165.391 54.1236 165.902 54.622C165.267 55.5183 164.555 56.4547 163.739 57.4208C160.696 55.595 158.432 50.2735 161.338 45.1362C163.838 34.8459 178.005 41.233 180.731 39.4975C181.326 43.2317 179.405 46.2426 172.649 45.6605Z" fill="#585886"/>
<path fill-rule="evenodd" clip-rule="evenodd" d="M159.601 113.867L182.052 170.69L197.109 218.728H203.055L180.035 113.867L159.601 113.867Z" fill="#997659"/>
<path fill-rule="evenodd" clip-rule="evenodd" d="M155.08 113.867C154.841 133.835 151.355 160.718 150.798 161.963C150.426 162.793 137.607 173.345 112.34 193.62L116.435 198.002C146.248 180.619 161.845 170.768 163.224 168.45C165.294 164.972 172.031 132.97 177.44 113.867H155.08Z" fill="#B28B67"/>
<path fill-rule="evenodd" clip-rule="evenodd" d="M111.792 192.157C110.416 192.643 109.469 193.104 108.949 193.54C108.318 194.07 107.484 194.949 106.448 196.177C107.063 196.91 112.591 203.498 123.031 215.94C125.16 215.029 125.828 213.963 125.035 212.743C124.242 211.523 123.593 210.501 123.088 209.678L119.475 197.056C119.406 196.813 119.152 196.673 118.91 196.742C118.905 196.743 118.901 196.745 118.897 196.746L116.969 197.357C115.632 196.734 114.695 196.102 114.157 195.462C113.721 194.941 113.328 194.047 112.979 192.777L112.979 192.777C112.845 192.29 112.341 192.004 111.854 192.137C111.833 192.143 111.812 192.15 111.792 192.157Z" fill="#585886"/>
<path fill-rule="evenodd" clip-rule="evenodd" d="M194.675 216.511C194.163 217.877 193.907 218.899 193.907 219.577C193.907 220.402 194.044 221.606 194.319 223.188C195.276 223.188 203.876 223.188 220.118 223.188C220.788 220.972 220.401 219.775 218.957 219.598C217.513 219.422 216.313 219.262 215.357 219.12L203.366 213.774C203.135 213.671 202.865 213.775 202.762 214.006C202.76 214.009 202.759 214.013 202.757 214.017L201.986 215.887C200.649 216.511 199.563 216.823 198.727 216.823C198.047 216.823 197.109 216.549 195.912 216L195.912 216C195.453 215.789 194.91 215.991 194.7 216.45C194.691 216.47 194.682 216.49 194.675 216.511Z" fill="#585886"/>
<path fill-rule="evenodd" clip-rule="evenodd" d="M174.696 213.78L202.966 210.712L182.014 113.867H156.694L174.696 213.78Z" fill="#585886"/>
<path fill-rule="evenodd" clip-rule="evenodd" d="M118.187 186.55L136.731 208.499C156.262 187.167 167.649 173.248 170.891 166.742C174.134 160.236 177.048 142.611 179.635 113.867H151.129C149.716 139.154 148.763 152.386 148.271 153.563C147.779 154.74 137.751 165.735 118.187 186.55Z" fill="#7878B3"/>
<path fill-rule="evenodd" clip-rule="evenodd" d="M200.871 108.338L214.313 121.367C218.225 123.025 221.43 124.855 223.928 126.858C224.49 127.532 225.101 128.822 222.458 128.245C219.815 127.667 217.008 127.178 216.511 128.032C216.014 128.886 217.478 130.195 216.56 131.313C215.948 132.058 213.89 129.688 210.385 124.202L196.406 116.014L200.871 108.338ZM135.136 96.5457L145.527 96.5844C137.612 122.061 133.411 135.399 132.923 136.601C131.825 139.305 134.149 143.423 135.143 145.635C131.906 147.074 132.251 141.746 128.168 143.633C124.442 145.355 121.607 148.476 117.302 145.837C116.773 145.512 116.193 144.291 117.594 143.336C121.086 140.957 126.117 136.794 126.797 135.424C127.724 133.555 130.504 120.596 135.136 96.5457Z" fill="#B28B67"/>
<path fill-rule="evenodd" clip-rule="evenodd" d="M166.799 67.2581L170.903 66.5588C177.367 89.2617 210.58 104.737 212.618 113.224C213.366 116.336 211.112 117.909 212.276 118.857L206.943 122.737C206.039 121.69 204.112 123.605 200.087 122.265C196.062 120.926 166.799 94.1402 166.799 67.2581Z" fill="#585886"/>
<path fill-rule="evenodd" clip-rule="evenodd" d="M173.702 70.2764C173.229 100.333 190.717 108 186.821 120.058C183.605 130.015 152.816 140.719 147.488 130.958C145.331 127.008 144.353 122.229 144.242 117.034C142.88 121.026 141.803 124.461 141.011 127.342C139.644 132.311 134.346 133.101 134.346 135.016L127.366 133.101C127.839 130.501 124.549 129.234 125.431 123.424C129.384 97.3895 140.006 78.5182 157.296 66.8097L157.479 64.2119C157.552 63.2046 158.425 62.4452 159.433 62.5136L172.351 63.411C173.359 63.4794 174.12 64.3534 174.05 65.3615C174.05 65.362 174.049 65.3626 174.048 65.363L173.702 70.2764Z" fill="#2E2E4F"/>
</svg>
